<?xml version="1.0" encoding="UTF-8" standalone="no"?>
<svg
   xmlns:dc="http://purl.org/dc/elements/1.1/"
   xmlns:cc="http://creativecommons.org/ns#"
   xmlns:rdf="http://www.w3.org/1999/02/22-rdf-syntax-ns#"
   xmlns:svg="http://www.w3.org/2000/svg"
   xmlns="http://www.w3.org/2000/svg"
   xmlns:sodipodi="http://sodipodi.sourceforge.net/DTD/sodipodi-0.dtd"
   xmlns:inkscape="http://www.inkscape.org/namespaces/inkscape"
   aria-hidden="true"
   data-fa-processed=""
   data-prefix="fac"
   data-icon="logo"
   role="img"
   viewBox="0 0 75 75"
   class="blue6 svg-inline--fa fa-logo fa-w-16"
   version="1.1"
   id="svg8"
   sodipodi:docname="Font Awesome.svg"
   inkscape:version="0.92.2 (5c3e80d, 2017-08-06)"
   width="75"
   height="75">
  <metadata
     id="metadata14">
    <rdf:RDF>
      <cc:Work
         rdf:about="">
        <dc:format>image/svg+xml</dc:format>
        <dc:type
           rdf:resource="http://purl.org/dc/dcmitype/StillImage" />
        <dc:title></dc:title>
      </cc:Work>
    </rdf:RDF>
  </metadata>
  <defs
     id="defs12" />
  <sodipodi:namedview
     pagecolor="#ffffff"
     bordercolor="#666666"
     borderopacity="1"
     objecttolerance="10"
     gridtolerance="10"
     guidetolerance="10"
     inkscape:pageopacity="0"
     inkscape:pageshadow="2"
     inkscape:window-width="640"
     inkscape:window-height="480"
     id="namedview10"
     showgrid="false"
     inkscape:zoom="11.533333"
     inkscape:cx="22.716763"
     inkscape:cy="44.704624"
     inkscape:current-layer="svg8"
     fit-margin-top="0"
     fit-margin-left="0"
     fit-margin-right="0"
     fit-margin-bottom="0" />
  <g
     transform="translate(37.5,259.2)"
     class=""
     id="g6"
     style="fill:#228ae6;fill-opacity:1">
    <g
       transform="translate(0,-3.2)"
       class=""
       id="g4"
       style="fill:#228ae6;fill-opacity:1">
      <path
         d="M 66.6,0 H 8.4 C 3.8,0 0,3.8 0,8.4 V 66.6 C 0,71.2 3.8,75 8.4,75 H 66.6 C 71.2,75 75,71.2 75,66.6 V 8.4 C 75,3.8 71.2,0 66.6,0 Z M 59,47.6 c 0,0.7 -0.6,1 -1.3,1.3 -2.8,1.2 -5.8,2.3 -9,2.3 -4.5,0 -6.6,-2.8 -12,-2.8 -3.9,0 -8,1.4 -11.3,2.9 -0.2,0.1 -0.4,0.1 -0.6,0.2 v 7.6 c 0,0.3 0,0.6 -0.1,0.8 v 0.2 c -0.4,1.4 -1.7,2.4 -3.2,2.4 -1.9,0 -3.4,-1.5 -3.4,-3.4 V 22.5 c -1.3,-1 -2.2,-2.6 -2.2,-4.4 0,-3.1 2.5,-5.6 5.6,-5.6 3.1,0 5.6,2.5 5.6,5.6 0,1.8 -0.8,3.4 -2.2,4.4 v 3.1 c 0.3,-0.1 0.6,-0.2 0.9,-0.4 3.1,-1.3 6.8,-2.4 10.3,-2.4 3.8,0 6.8,1 10.2,2.3 0.7,0.3 1.4,0.4 2.2,0.4 3.8,0 8,-2.7 9,-2.7 0.8,0 1.5,0.6 1.5,1.3 z"
         transform="translate(-37.5,-256)"
         class=""
         id="path2"
         style="fill:#228ae6;fill-opacity:1"
         inkscape:connector-curvature="0" />
    </g>
  </g>
</svg>
